<svg xmlns="http://www.w3.org/2000/svg"
    width="5000"
    height="2600"
    viewBox="0 0 5000 2600">
  <path
      d="m889,1420.4h105.5v104.2c0,33.1 -0.4,64.7 25.8,89.3 37.4,35.2 96.1,24.5 143.1,24.5l332.6,0.2c44.2,0 103.3,10.8 141,-17.1 32.5,-24 33.5,-58.3 39.5,-94.5 10.5,-62.9 20.6,-126.1 32.3,-188.8 5.9,-31.7 18.7,-71 12.2,-103 -1.7,-8.3 -5,-15.9 -9,-23.3 -30.4,-57.1 -102.2,-45.4 -156,-45.4h-46.6,-327.4l-103.9,-0.2c-44.1,-0.1 -82,42 -84,77.9 -1.6,29.8 -0.8,101.5 -0.8,101.5l-103.8,0.3c0,0 -0.5,-76.5 -0.6,-94.6 -0.1,-51.4 -48.3,-84.6 -87.3,-84.6l-516,-0.2c-35.8,-0 -69.4,-1.4 -98.1,23.8 -33.8,29.8 -27.1,68.3 -20.6,107.4 12.2,73.2 25.4,146.3 37.6,219.5 5.8,34.8 5.5,73.8 34.5,98.8 38.1,32.9 95.5,22.6 142.2,22.6h334.8c45.5,0 107.1,11.5 143.5,-22.2 30.3,-28.1 29.4,-62.3 29.4,-100.4v-95.6M240.3,1223.4c14.7,-2.6 31.6,-0.4 46.6,-0.4h92,288.2l140.1,0.2c11.4,0 26,17.8 26.1,27.1l0.6,258.4c0.1,25.1 7.4,64.7 -24.5,73.4 -13.7,3.7 -30.1,1.4 -44.1,1.4H681.8,408.3l-113.6,-0.3c0,0 -24.7,-3.8 -28.4,-26.7 -10.8,-66.1 -32.8,-191.3 -43.9,-257.5 -4,-23.9 -18.8,-69.2 17.9,-75.6m835.1,0c14.8,-2.5 31.6,-0.4 46.6,-0.4h93.2,285.7 105.5c14.6,0 33.8,-3.4 46.6,4.9 25.8,16.7 10.2,55.6 6.2,79.7 -11.5,69.1 -24.1,138.1 -35.6,207.2 -4,23.9 -3,60.5 -32,67.6 -13.7,3.3 -30,1.1 -44.1,1.1h-84.6,-271 -89.5c-15,0 -30.7,1.9 -42.8,-9 -16.8,-16 -10.2,-51.7 -9.9,-73 0,-0.5 0,-0.9 0,-1.4v-204.8c0,-24.2 -7.5,-66.3 25.8,-72M559.7,70.3 L594,113.8 636.4,80.5 869.9,383.9 913.2,350.3 646.5,3.4m1018.8,329.7 l37.1,21.2 -151.6,258.1 38.1,21.9 172.5,-295.5c-24,-14.6 -74.3,-43.8 -74.3,-43.8m877.1,90.9c-65.1,10.2 -69.2,110.6 -3.7,124 93,19 106.3,-133.7 3.7,-124m2298,0c-40.2,7.2 -63.2,54.9 -44.9,91.4 13,26.1 42.8,38.3 70.7,33 48.9,-9.3 60.8,-77.4 28.1,-110.1 -13.7,-13.7 -35.2,-17.6 -53.8,-14.3M2261.2,1355.4v123.9c0,30.6 1.2,61.2 -15.7,88.3 -26.7,42.7 -94.1,37.8 -118.6,-3.7 -19.7,-33.3 -14,-77.1 -14,-114l-42.9,1.2h-79.7c0,64.4 -5.6,130.7 34.9,185.2 19.9,26.8 46.6,50 76.7,64.7 96.9,47.2 215.7,2.9 264.6,-91.7 17.3,-33.5 17.5,-72.3 17.5,-109.1V1381.1,965.4 851.4c0,-31.8 0.4,-65.2 -10.5,-95.6 -7,-19.7 -20.1,-38.3 -33.7,-54 -72.6,-84.3 -204.6,-95 -286.9,-18.3 -21.6,20.1 -41.8,45.3 -51.9,73.5 -15.7,44 -10.7,95.1 -10.7,141v198.7c0,48.5 -7.9,109.4 13.8,154.5 45.1,93.5 158.7,147.9 257.2,104.2m251.4,-724.7v739.4h122.6V630.7h-122.6m513.8,724.7v121.4c0,31 1.2,61.9 -15.3,89.5 -24.5,41.1 -91.5,41.1 -117.1,1.2 -21.8,-34 -16.1,-78.1 -16.1,-116.5h-122.6c0,61 -6.5,126.4 30.3,179 16.9,24.2 38.9,45.6 64.1,61.2 99.5,61.8 227.4,18 281.7,-82.1 16.9,-31.2 17.5,-69.7 17.5,-104.2V1383.6,966.7 852.6c0,-32.1 0.3,-66.2 -10.7,-96.9 -7.4,-20.6 -21.4,-40.2 -35.9,-56.4 -72.1,-81.3 -198.5,-90.9 -280.9,-19.3 -22.7,19.7 -44.3,45.9 -54.9,74.4 -19.7,53 -11.3,117.5 -11.3,172.9V1116.3c0,41.5 -2.9,85 9.8,125.1 6.4,20.1 19.6,39.1 33,55.2 56.5,68 146.4,90.4 228.2,58.9m251.4,-517.5h122.6c1,-23.1 8,-49.2 24.7,-66 24.2,-24.2 74.7,-24.2 98.9,0 31.5,31.5 24.7,79.5 24.7,120 -59,-12.2 -116.2,-17 -170.5,15.3 -44.7,26.6 -80.9,71.9 -92.4,123.3 -7.6,34.1 -5.7,70.7 -5.7,105.5 0,59.1 5.3,114.1 43.9,161.9 31,38.3 76.3,64.5 125.3,70.8 28.2,3.6 57.4,1.6 85.8,1.6h136.1V938.5c0,-66.7 12,-147.5 -23.1,-207.2 -11.9,-20.2 -27.7,-38.2 -45.5,-53.2 -99,-83.6 -250,-48.2 -308.7,65.5 -14.5,28.1 -16.3,63.4 -16.3,94.4m510.1,-207.2v739.4h122.6V754.5c37.6,0 98.5,-11.8 127,18.6 22.7,24.2 23.8,58.1 23.8,89.3v78.5,429.2h122.6V907.8c0,-49.8 6.7,-107.1 -11.8,-154.5 -10.3,-26.4 -29.5,-49.1 -49.5,-68.7 -12.9,-12.6 -28.4,-23 -44.1,-31.5 -37.8,-20.5 -79.5,-22.5 -121.4,-22.5h-114c-18.1,0 -37.2,1.9 -55.2,0m903.8,469.7h-122.6c0,39.7 5.8,85.7 -18.1,120.2 -31.8,45.9 -101.7,29.8 -121.8,-17.2 -13.9,-32.5 -8.4,-72.2 -8.4,-106.7V891.9c0,-36 -4.9,-75.9 15.3,-107.9 24.6,-39.2 91.2,-40.5 116.6,-1.2 22,33.9 16.5,78 16.5,116.5h122.6c0,-60 6.1,-124.3 -28.8,-176.6 -78.3,-117.5 -251.7,-120.9 -333.3,-4.9 -36,51.2 -31.5,110.8 -31.5,170.5 0,97.7 -0.5,195.4 0,293.1 0.7,149 180.5,239.3 302.9,157.8 33.3,-22.2 65.8,-55.6 79.6,-94 16.2,-45.2 11.1,-97.5 11.1,-144.7m118.9,269.8h124.1l0,-739.5 -124.3,-0.3m-2635,124.6c44.9,-5.5 76.7,20.6 84.1,64.6 8.1,48.2 1.8,102 1.8,150.8v131.2c0,22.2 1.9,45.4 -0.2,67.4 -3.9,40.7 -23.9,74.1 -67.2,78.3 -45.2,4.3 -75.1,-29.2 -79.5,-72.1 -4.9,-48.4 -1.4,-98.5 -1.4,-147.2 0,-62.7 -2.7,-126.2 0,-188.8 1.7,-39.7 19.1,-78.9 62.5,-84.3m764,0c42.3,-5.5 76.3,17.2 84.3,59.7 9.2,48.9 2.8,103.6 2.8,153.3v132.4c0,22.2 1.9,45.4 -0.2,67.4 -3.9,40.8 -22.7,74.2 -66,79.4 -51.3,6.1 -76.4,-34.1 -81.8,-79.4 -5,-42.5 -0.3,-88.4 -0.3,-131.2 0,-66.4 -2.9,-133.5 0,-199.9 1.7,-38.3 19.8,-76.4 61.3,-81.8m609.5,492.6c-33.4,0 -79.8,8.3 -109.1,-10.7 -42.5,-27.5 -39.2,-81.4 -39.2,-125.4 0,-29.9 1.9,-62.2 23,-85.7 23.5,-26.2 62,-23.1 93.5,-17.8 7.3,1.2 25.9,2.2 30.6,8.6 3,4 1.3,13 1.3,17.7v44.1,169.2"
      stroke-width="1.22626"
      fill="#f07e04"
      stroke="#00000000"/>
</svg>
